<svg width="50" height="42" viewBox="0 0 50 42" fill="none" xmlns="http://www.w3.org/2000/svg">
<path d="M45.8341 8.50243V4.33576L29.1674 14.7524L12.5007 4.33576V8.50243L29.1674 18.9191L45.8341 8.50243ZM45.8341 0.169098C46.9391 0.169098 47.9989 0.608085 48.7803 1.38949C49.5617 2.17089 50.0007 3.2307 50.0007 4.33576V29.3358C50.0007 30.4408 49.5617 31.5006 48.7803 32.282C47.9989 33.0634 46.9391 33.5024 45.8341 33.5024H12.5007C10.1882 33.5024 8.33407 31.6274 8.33407 29.3358V4.33576C8.33407 2.02326 10.1882 0.169098 12.5007 0.169098H45.8341ZM4.1674 8.50243V37.6691H41.6674V41.8358H4.1674C3.06233 41.8358 2.00252 41.3968 1.22112 40.6154C0.439719 39.834 0.000732422 38.7742 0.000732422 37.6691V8.50243H4.1674Z" fill="black"/>
</svg>
