<svg width="50" height="50" viewBox="0 0 50 50" fill="none" xmlns="http://www.w3.org/2000/svg">
<path d="M39.0207 11.2708L36.3541 13.3542L24.9999 21.7917L13.6457 13.2708L10.9791 11.1875C10.3508 10.6678 9.58396 10.3438 8.77342 10.2557C7.96287 10.1676 7.14429 10.3193 6.41908 10.6918C5.69388 11.0644 5.09391 11.6416 4.69352 12.3518C4.29314 13.0621 4.10992 13.8741 4.16657 14.6875V38.8333C4.16657 39.5848 4.46508 40.3054 4.99643 40.8368C5.52778 41.3682 6.24845 41.6667 6.9999 41.6667H13.6457V25.5833L24.9999 34.1042L36.3541 25.5833V41.6667H42.9999C43.7513 41.6667 44.472 41.3682 45.0034 40.8368C45.5347 40.3054 45.8332 39.5848 45.8332 38.8333V14.6875C45.8724 13.8812 45.6764 13.0808 45.2692 12.3838C44.862 11.6867 44.261 11.123 43.5394 10.7611C42.8178 10.3992 42.0066 10.2547 41.2044 10.3452C40.4022 10.4357 39.6436 10.7573 39.0207 11.2708Z" fill="black"/>
</svg>
