<svg width="50" height="50" viewBox="0 0 50 50" fill="none" xmlns="http://www.w3.org/2000/svg">
<path d="M24.8333 4C13.3459 4 4 13.3459 4 24.8333C4 36.3208 13.3459 45.6667 24.8333 45.6667C36.3208 45.6667 45.6667 36.3208 45.6667 24.8333C45.6667 13.3459 36.3208 4 24.8333 4ZM24.8333 6.33333C34.6319 6.33333 43.3333 15.0348 43.3333 24.8333C43.3333 32.8181 37.2885 40.1152 30.0417 42.3333L30.1037 36.3924C30.1037 34.4027 28.9572 32.6965 27.3002 31.8473C28.9113 31.5391 30.4074 30.9279 31.6641 30.0645C32.9208 29.201 33.902 28.1103 34.5263 26.8827C35.1505 25.6551 35.3997 24.3261 35.2533 23.0061C35.1069 21.686 34.5691 20.4129 33.6845 19.2924C34.1465 17.8702 34.6626 15.3757 33.4363 13.4127C31.0718 13.4127 29.5461 15.0334 28.8179 16.0413C27.5731 15.6323 26.2411 15.4202 24.8954 15.4167C23.5489 15.4179 22.2154 15.6279 20.9688 16.0352C20.2389 15.0268 18.7144 13.4127 16.3545 13.4127C14.9472 15.6654 15.8172 18.0881 16.2833 19.0767C15.3389 20.1924 14.7467 21.4746 14.5575 22.8135C14.3683 24.1524 14.5877 25.508 15.197 26.7642C15.8063 28.0203 16.7872 29.1396 18.0558 30.0259C19.3243 30.9123 20.8426 31.5394 22.4804 31.8534C21.1199 32.5547 20.1009 33.8271 19.7888 35.3711H18.4196C17.0685 35.3711 16.5436 34.8221 15.8134 33.8961C15.0925 32.97 14.3175 32.3478 13.3862 32.0894C12.8841 32.0363 12.5459 32.4182 12.9834 32.7568C14.4615 33.763 14.5635 35.4099 15.1562 36.488C15.6958 37.4589 16.8013 38.3333 18.0513 38.3333H19.6871L19.7267 42.3333C12.3333 40.8333 6.5 32.8181 6.5 24.8333C6.5 15.0348 15.0348 6.33333 24.8333 6.33333Z" fill="#1E1E1D"/>
</svg>
