<svg width="42" height="42" viewBox="0 0 42 42" fill="none" xmlns="http://www.w3.org/2000/svg">
<path d="M20.8333 0C9.3459 0 0 9.34591 0 20.8333C0 32.3208 9.3459 41.6667 20.8333 41.6667C32.3208 41.6667 41.6667 32.3208 41.6667 20.8333C41.6667 9.34591 32.3208 0 20.8333 0ZM20.8333 2.33333C30.6319 2.33333 39.3333 11.0348 39.3333 20.8333C39.3333 28.8181 33.2885 36.1152 26.0417 38.3333L26.1037 32.3924C26.1037 30.4027 24.9572 28.6965 23.3002 27.8473C24.9113 27.5391 26.4074 26.9279 27.6641 26.0645C28.9208 25.201 29.902 24.1103 30.5263 22.8827C31.1505 21.6551 31.3997 20.3261 31.2533 19.0061C31.1069 17.686 30.5691 16.4129 29.6845 15.2924C30.1465 13.8702 30.6626 11.3757 29.4363 9.41268C27.0718 9.41268 25.5461 11.0334 24.8179 12.0413C23.5731 11.6323 22.2411 11.4202 20.8954 11.4167C19.5489 11.4179 18.2154 11.6279 16.9688 12.0352C16.2389 11.0268 14.7144 9.41268 12.3545 9.41268C10.9472 11.6654 11.8172 14.0881 12.2833 15.0767C11.3389 16.1924 10.7467 17.4746 10.5575 18.8135C10.3683 20.1524 10.5877 21.508 11.197 22.7642C11.8063 24.0203 12.7872 25.1396 14.0558 26.0259C15.3243 26.9123 16.8426 27.5394 18.4804 27.8534C17.1199 28.5547 16.1009 29.8271 15.7888 31.3711H14.4196C13.0685 31.3711 12.5436 30.8221 11.8134 29.8961C11.0925 28.97 10.3175 28.3478 9.38621 28.0894C8.88412 28.0363 8.54587 28.4182 8.98337 28.7568C10.4615 29.763 10.5635 31.4099 11.1562 32.488C11.6958 33.4589 12.8013 34.3333 14.0513 34.3333H15.6871L15.7267 38.3333C8.33334 36.8333 2.5 28.8181 2.5 20.8333C2.5 11.0348 11.0348 2.33333 20.8333 2.33333Z" fill="#1E1E1D"/>
</svg>
