<svg width="50" height="50" viewBox="0 0 50 50" fill="none" xmlns="http://www.w3.org/2000/svg">
<path d="M39.5838 6.25226C40.6889 6.25226 41.7487 6.69124 42.5301 7.47265C43.3115 8.25405 43.7505 9.31386 43.7505 10.4189V39.5856C43.7505 40.6907 43.3115 41.7505 42.5301 42.5319C41.7487 43.3133 40.6889 43.7523 39.5838 43.7523H10.4172C9.31209 43.7523 8.25228 43.3133 7.47088 42.5319C6.68947 41.7505 6.25049 40.6907 6.25049 39.5856V10.4189C6.25049 9.31386 6.68947 8.25405 7.47088 7.47265C8.25228 6.69124 9.31209 6.25226 10.4172 6.25226H39.5838ZM38.5422 38.5439V27.5023C38.5422 25.701 37.8266 23.9735 36.5529 22.6998C35.2792 21.4261 33.5517 20.7106 31.7505 20.7106C29.9797 20.7106 27.9172 21.7939 26.9172 23.4189V21.1064H21.1047V38.5439H26.9172V28.2731C26.9172 26.6689 28.2088 25.3564 29.813 25.3564C30.5865 25.3564 31.3284 25.6637 31.8754 26.2107C32.4224 26.7577 32.7297 27.4995 32.7297 28.2731V38.5439H38.5422ZM14.3338 17.8356C15.2621 17.8356 16.1523 17.4668 16.8087 16.8105C17.4651 16.1541 17.8338 15.2638 17.8338 14.3356C17.8338 12.3981 16.2713 10.8148 14.3338 10.8148C13.4 10.8148 12.5045 11.1857 11.8442 11.846C11.1839 12.5063 10.813 13.4018 10.813 14.3356C10.813 16.2731 12.3963 17.8356 14.3338 17.8356ZM17.2297 38.5439V21.1064H11.4588V38.5439H17.2297Z" fill="black"/>
</svg>
